<svg xmlns="http://www.w3.org/2000/svg" width="2650" height="1828" viewBox="0 0 2650 1828">
  <defs>
    <linearGradient id="aws-demo-background-v1-a" x1="2.025%" x2="94.733%" y1="26.954%" y2="71.617%">
      <stop offset="0%" stop-color="#1A1454"/>
      <stop offset="100%" stop-color="#311A86"/>
    </linearGradient>
    <linearGradient id="aws-demo-background-v1-b" x1="50%" x2="50%" y1="0%" y2="100%">
      <stop offset="0%" stop-color="#FFF"/>
      <stop offset="100%" stop-color="#FFF" stop-opacity="0"/>
    </linearGradient>
    <linearGradient id="aws-demo-background-v1-c" x1="50%" x2="50%" y1="0%" y2="100%">
      <stop offset="0%" stop-color="#FFF"/>
      <stop offset="100%" stop-color="#FFF" stop-opacity="0"/>
    </linearGradient>
  </defs>
  <g fill="none" fill-rule="evenodd">
    <rect width="2650" height="1828" fill="url(#aws-demo-background-v1-a)"/>
    <g transform="translate(-406 -476.5)">
      <ellipse cx="616" cy="615.5" fill="#2C0085" opacity=".297" rx="616" ry="615.5"/>
      <ellipse cx="616" cy="615.5" fill="#1E0057" rx="452" ry="452.5"/>
      <ellipse cx="617.5" cy="609" fill="#1E0057" opacity=".3" rx="542.5" ry="542"/>
    </g>
    <path fill="url(#aws-demo-background-v1-b)" d="M1408.2559,1107 C1416.51574,1053.24446 1464.5185,1012 1522.5,1012 C1539.06845,1012 1554.82209,1015.36783 1569.0664,1021.43305 C1588.82336,989.420029 1624.842,968 1666,968 C1695.41762,968 1722.20972,978.942753 1742.31509,996.874873 C1754.89981,991.793816 1768.62803,989 1783,989 C1807.99837,989 1831.04909,997.452565 1849.52227,1011.69193 C1865.33132,966.706816 1913.29055,934 1970,934 C2008.61082,934 2043.16538,949.161614 2066.27824,973.03725 C2078.61543,966.62421 2092.63447,963 2107.5,963 C2134.52656,963 2158.75518,974.979377 2175.16574,993.917994 C2184.35559,990.731268 2194.22562,989 2204.5,989 C2226.37558,989 2246.41811,996.848233 2261.96549,1009.88261 C2274.99989,1004.18809 2289.59305,1001 2305,1001 C2337.44066,1001 2366.27338,1015.13436 2384.5438,1037.03982 C2385.69126,1037.01334 2386.84343,1037 2388,1037 C2443.77745,1037 2489.29925,1068.03228 2491.88416,1107 L1408.2559,1107 Z" opacity=".254"/>
    <path fill="url(#aws-demo-background-v1-c)" d="M-478,1357 C-467.089898,1284.845 -402.628951,1229.43189 -324.739814,1229.43189 C-302.521291,1229.43189 -281.39545,1233.94099 -262.293625,1242.06153 C-235.799266,1199.20024 -187.497774,1170.52159 -132.30433,1170.52159 C-92.8548966,1170.52159 -56.9263233,1185.17252 -29.9647448,1209.18131 C-13.0884515,1202.37843 5.32127764,1198.63787 24.5942875,1198.63787 C58.1174407,1198.63787 89.0287772,1209.95476 113.801567,1229.01943 C135.001731,1168.79019 199.315715,1125 275.363873,1125 C327.141517,1125 373.479652,1145.29944 404.474322,1177.26582 C421.01866,1168.67959 439.818397,1163.82724 459.753274,1163.82724 C495.996262,1163.82724 528.487183,1179.86608 550.493962,1205.22243 C562.817685,1200.95582 576.053524,1198.63787 589.831615,1198.63787 C619.167069,1198.63787 646.044374,1209.14564 666.893636,1226.59699 C684.372947,1218.97275 703.942574,1214.70432 724.603504,1214.70432 C768.106872,1214.70432 806.771956,1233.6284 831.272836,1262.95697 C832.811601,1262.92152 834.35667,1262.90365 835.907652,1262.90365 C910.885299,1262.90365 972.043968,1304.65131 975.241687,1357 L-478,1357 Z" opacity=".254" transform="matrix(-1 0 0 1 497.242 0)"/>
    <g transform="translate(-147 -25)">
      <g opacity=".549">
        <rect width="153" height="49" x="149" y="90" fill="#2C47A7" rx="24.5"/>
        <rect width="442" height="49" x="150" y="179" fill="#2C0085" rx="24.5"/>
        <rect width="500" height="49" x="342" y="90" fill="#2C0085" rx="24.5"/>
        <rect width="263" height="49" y="1" fill="#2C47A7" rx="24.5"/>
        <rect width="456" height="49" x="303" fill="#2C0085" rx="24.5"/>
      </g>
      <g opacity=".546" transform="translate(0 268)">
        <rect width="153" height="49" x="580" y="179" fill="#2C47A7" rx="24.5"/>
        <rect width="153" height="49" x="211" y="265" fill="#2C47A7" rx="24.5"/>
        <rect width="549" height="49" x="412" y="268" fill="#2C0085" rx="24.5"/>
        <rect width="218" height="49" x="819" fill="#2C0085" rx="24.5"/>
        <rect width="211" height="49" y="357" fill="#2C47A7" rx="24.5"/>
        <rect width="395" height="49" x="132" y="179" fill="#2C0085" rx="24.5"/>
        <rect width="776" height="49" x="132" y="90" fill="#2C0085" rx="24.5"/>
        <rect width="263" height="49" y="1" fill="#2C47A7" rx="24.5"/>
        <rect width="456" height="49" x="303" fill="#2C47A7" rx="24.5"/>
      </g>
    </g>
    <g opacity=".444" transform="translate(1817 1286)">
      <g transform="matrix(-1 0 0 1 1007 421)">
        <rect width="134" height="43" x="825" y="79" fill="#2C47A7" rx="21.5"/>
        <rect width="313" height="43" x="128" y="79" fill="#2C0085" rx="21.5"/>
        <rect width="313" height="43" x="478" y="80" fill="#2C0085" rx="21.5"/>
        <rect width="190" height="43" x="364" fill="#2C47A7" rx="21.5"/>
        <rect width="190" height="43" x="141" y="1" fill="#2C0085" rx="21.5"/>
      </g>
      <g transform="matrix(-1 0 0 1 1007 0)">
        <rect width="203" height="43" x="127" y="155" fill="#2C0085" rx="21.5"/>
        <rect width="530" height="43" x="477" y="157" fill="#2C0085" rx="21.5"/>
        <rect width="77" height="43" x="366" y="155" fill="#2C47A7" rx="21.5"/>
        <rect width="530" height="43" x="227" y="233" fill="#2C47A7" rx="21.5"/>
        <rect width="134" height="43" x="825" y="79" fill="#2C47A7" rx="21.5"/>
        <rect width="313" height="43" x="128" y="79" fill="#2C0085" rx="21.5"/>
        <rect width="313" height="43" x="478" y="80" fill="#2C0085" rx="21.5"/>
        <rect width="190" height="43" x="364" fill="#2C47A7" rx="21.5"/>
        <rect width="190" height="43" x="141" y="1" fill="#2C0085" rx="21.5"/>
      </g>
    </g>
    <g fill="#FFF" fill-opacity=".898" transform="translate(122 144)">
      <circle cx="870" cy="319" r="15" opacity=".586"/>
      <circle cx="1347" cy="541" r="11" opacity=".384"/>
      <circle cx="2195.5" cy="112.5" r="12.5"/>
      <circle cx="2384" cy="902" r="14" opacity=".569"/>
      <circle cx="1925" cy="1487" r="11"/>
      <circle cx="10" cy="985" r="10"/>
      <circle cx="276" cy="15" r="15"/>
      <circle cx="167" cy="441" r="9"/>
    </g>
    <g transform="translate(245 209)">
      <g transform="translate(2014 936)">
        <rect width="68" height="68"/>
        <path fill="#6785F2" fill-rule="nonzero" d="M48.8568951,24.8153402 C47.7901671,23.6662733 47.8442142,21.858062 48.9776128,20.7765872 C50.1110111,19.6951125 51.894566,19.7499068 52.9612941,20.8989737 L64.2340184,33.0418209 C65.2553272,34.1419629 65.2553272,35.8580455 64.2340184,36.9581875 L52.9612941,49.1010346 C51.894566,50.2501014 50.1110111,50.3048957 48.9776128,49.2234211 C47.8442142,48.1419463 47.7901671,46.3337349 48.8568951,45.1846681 L58.3117543,35.0000082 L48.8568951,24.8153402 Z M19.1431048,24.815332 L9.68824578,35 L19.1431048,45.1846599 C20.2098328,46.3337269 20.1557857,48.141938 19.0223872,49.2234128 C17.8889888,50.3048877 16.1054339,50.2500931 15.0387059,49.1010264 L3.76598163,36.9581792 C2.74467279,35.8580372 2.74467279,34.1419546 3.76598163,33.0418127 L15.0387059,20.8989655 C16.1054339,19.7498986 17.8889888,19.6951043 19.0223872,20.776579 C20.1557857,21.8580538 20.2098328,23.6662651 19.1431048,24.815332 Z"/>
        <path fill="#6785F2" fill-rule="nonzero" d="M32.1666667,11.3333333 L35.8333333,11.3333333 C36.3856181,11.3333333 36.8333333,11.7810486 36.8333333,12.3333333 L36.8333333,55.6666667 C36.8333333,56.2189514 36.3856181,56.6666667 35.8333333,56.6666667 L32.1666667,56.6666667 C31.6143819,56.6666667 31.1666667,56.2189514 31.1666667,55.6666667 L31.1666667,12.3333333 C31.1666667,11.7810486 31.6143819,11.3333333 32.1666667,11.3333333 Z" opacity=".3" transform="rotate(15 34 34)"/>
      </g>
      <g transform="translate(1939 548)">
        <rect width="42" height="42"/>
        <rect width="4" height="14" x="9" y="14" fill="#6785F2" fill-rule="nonzero" opacity=".3" rx="1"/>
        <path fill="#6785F2" fill-rule="nonzero" d="M11,36.5 C12.9329966,36.5 14.5,34.9329966 14.5,33 C14.5,31.0670034 12.9329966,29.5 11,29.5 C9.06700338,29.5 7.5,31.0670034 7.5,33 C7.5,34.9329966 9.06700338,36.5 11,36.5 Z M11,40 C7.13400675,40 4,36.8659933 4,33 C4,29.1340067 7.13400675,26 11,26 C14.8659933,26 18,29.1340067 18,33 C18,36.8659933 14.8659933,40 11,40 Z"/>
        <rect width="4" height="14" x="30" y="14" fill="#6785F2" fill-rule="nonzero" opacity=".3" rx="1"/>
        <path fill="#6785F2" fill-rule="nonzero" d="M32 36.5C33.9329966 36.5 35.5 34.9329966 35.5 33 35.5 31.0670034 33.9329966 29.5 32 29.5 30.0670034 29.5 28.5 31.0670034 28.5 33 28.5 34.9329966 30.0670034 36.5 32 36.5zM32 40C28.1340067 40 25 36.8659933 25 33 25 29.1340067 28.1340067 26 32 26 35.8659933 26 39 29.1340067 39 33 39 36.8659933 35.8659933 40 32 40zM11 12.5C12.9329966 12.5 14.5 10.9329966 14.5 9 14.5 7.06700337 12.9329966 5.5 11 5.5 9.06700338 5.5 7.5 7.06700337 7.5 9 7.5 10.9329966 9.06700338 12.5 11 12.5zM11 16C7.13400675 16 4 12.8659933 4 9 4 5.13400675 7.13400675 2 11 2 14.8659933 2 18 5.13400675 18 9 18 12.8659933 14.8659933 16 11 16zM32 12.5C33.9329966 12.5 35.5 10.9329966 35.5 9 35.5 7.06700337 33.9329966 5.5 32 5.5 30.0670034 5.5 28.5 7.06700337 28.5 9 28.5 10.9329966 30.0670034 12.5 32 12.5zM32 16C28.1340067 16 25 12.8659933 25 9 25 5.13400675 28.1340067 2 32 2 35.8659933 2 39 5.13400675 39 9 39 12.8659933 35.8659933 16 32 16z"/>
      </g>
      <g transform="translate(2240 176)">
        <polygon points="0 0 71 0 71 71 0 71"/>
        <path fill="#6785F2" fill-rule="nonzero" d="M10.9668567,46.4668564 C9.8115557,47.6221574 7.93844263,47.6221574 6.78314161,46.4668564 C5.62784058,45.3115553 5.62784058,43.4384422 6.78314161,42.2831411 L24.5331416,24.5331412 C25.6531043,23.4131785 27.4564642,23.3739935 28.6240179,24.4442511 L46.3740178,40.7150845 C47.5784115,41.8191121 47.6597742,43.690457 46.5557467,44.8948507 C45.4517192,46.0992444 43.5803743,46.1806071 42.3759806,45.0765796 L26.7139733,30.7197397 L10.9668567,46.4668564 Z" transform="rotate(90 26.625 35.5)"/>
        <rect width="30" height="6" x="35" y="50" fill="#6785F2" fill-rule="nonzero" opacity=".3" rx="1"/>
      </g>
      <g transform="translate(306 532)">
        <polygon points="0 0 79 0 79 79 0 79"/>
        <path fill="#6785F2" fill-rule="nonzero" d="M12.2025589,51.7025585 C10.9170831,52.9880343 8.83291504,52.9880343 7.54743925,51.7025585 C6.26196347,50.4170827 6.26196347,48.3329145 7.54743925,47.0474387 L27.2974393,27.2974388 C28.5435949,26.0512831 30.5501503,26.0076829 31.8492593,27.1985329 L51.5992592,45.3026997 C52.9393593,46.5311247 53.0298896,48.6133254 51.8014647,49.9534254 C50.5730397,51.2935255 48.490839,51.3840558 47.1507389,50.1556309 L29.7239984,34.1811189 L12.2025589,51.7025585 Z" transform="rotate(90 29.625 39.5)"/>
        <rect width="33" height="7" x="39" y="56" fill="#6785F2" fill-rule="nonzero" opacity=".3" rx="1"/>
      </g>
      <g transform="translate(0 765)">
        <rect width="68" height="68"/>
        <path fill="#6785F2" fill-rule="nonzero" d="M47.0743903,48.8200663 L31,33.1695443 L31,10.8235294 C31,9.26413718 32.2983744,8 33.9,8 C35.5016256,8 36.8,9.26413718 36.8,10.8235294 L36.8,30.8304557 L51.1756097,44.8269926 L57.5246951,38.6453272 C58.0909555,38.0939987 59.0090445,38.0939987 59.5753049,38.6453272 C59.8472326,38.9100845 60,39.2691722 60,39.6435957 L60,54.5882353 C60,55.3679315 59.350813,56 58.55,56 L43.2006097,56 C42.3997968,56 41.7506097,55.3679315 41.7506097,54.5882353 C41.7506097,54.2138121 41.9033771,53.8547241 42.1753049,53.5899669 L47.0743903,48.8200663 Z"/>
        <path fill="#6785F2" fill-rule="nonzero" d="M19.8472683,48.0651522 L25.4722655,53.6279108 C25.7357699,53.8884997 25.8838052,54.2419342 25.8838052,54.6104623 C25.8838052,55.3778829 25.2547275,56 24.4787207,56 L9.40508443,56 C8.62907774,56 8,55.3778829 8,54.6104623 L8,39.7036107 C8,39.3350822 8.14803526,38.981648 8.4115397,38.7210591 C8.96025932,38.1784108 9.84990958,38.1784108 10.3986292,38.7210591 L15.859314,44.1213233 L24.3695866,37 L28,41.2430161 L19.8472683,48.0651522 Z" opacity=".3"/>
      </g>
      <g transform="translate(117 1354)">
        <rect width="68" height="68"/>
        <path fill="#6785F2" fill-rule="nonzero" d="M19.7142857,31.625 L42.5714286,31.625 C45.7273414,31.625 48.2857143,29.0506373 48.2857143,25.875 L48.2857143,23 L54,23 L54,25.875 C54,32.2262746 48.8832543,37.375 42.5714286,37.375 L19.7142857,37.375 L19.7142857,43.125 C19.7142857,44.7128185 18.4350993,46 16.8571429,46 C15.2791864,46 14,44.7128185 14,43.125 L14,25.875 C14,24.2871813 15.2791864,23 16.8571429,23 C18.4350993,23 19.7142857,24.2871813 19.7142857,25.875 L19.7142857,31.625 Z" opacity=".3"/>
        <path fill="#6785F2" fill-rule="nonzero" d="M16.5 59.25C19.6756373 59.25 22.25 56.6756373 22.25 53.5 22.25 50.3243627 19.6756373 47.75 16.5 47.75 13.3243627 47.75 10.75 50.3243627 10.75 53.5 10.75 56.6756373 13.3243627 59.25 16.5 59.25zM16.5 65C10.1487254 65 5 59.8512746 5 53.5 5 47.1487254 10.1487254 42 16.5 42 22.8512746 42 28 47.1487254 28 53.5 28 59.8512746 22.8512746 65 16.5 65zM50.5 20.25C53.6756373 20.25 56.25 17.6756373 56.25 14.5 56.25 11.3243627 53.6756373 8.75 50.5 8.75 47.3243627 8.75 44.75 11.3243627 44.75 14.5 44.75 17.6756373 47.3243627 20.25 50.5 20.25zM50.5 26C44.1487254 26 39 20.8512746 39 14.5 39 8.14872537 44.1487254 3 50.5 3 56.8512746 3 62 8.14872537 62 14.5 62 20.8512746 56.8512746 26 50.5 26zM16.5 20.25C19.6756373 20.25 22.25 17.6756373 22.25 14.5 22.25 11.3243627 19.6756373 8.75 16.5 8.75 13.3243627 8.75 10.75 11.3243627 10.75 14.5 10.75 17.6756373 13.3243627 20.25 16.5 20.25zM16.5 26C10.1487254 26 5 20.8512746 5 14.5 5 8.14872537 10.1487254 3 16.5 3 22.8512746 3 28 8.14872537 28 14.5 28 20.8512746 22.8512746 26 16.5 26z"/>
      </g>
      <g transform="translate(1329)">
        <rect width="45" height="45"/>
        <path fill="#6785F2" fill-rule="nonzero" d="M4.82193677,19.9497475 L8.79059855,15.8492424 C9.88651422,14.7169192 11.6633446,14.7169192 12.7592603,15.8492424 L16.7279221,19.9497475 C17.8238378,21.0820708 17.8238378,22.9179293 16.7279221,24.0502527 L12.7592603,28.1507576 C11.6633446,29.2830808 9.88651422,29.2830808 8.79059855,28.1507576 L4.82193677,24.0502527 C3.72602108,22.9179293 3.72602108,21.0820708 4.82193677,19.9497475 Z M27.272078,19.9497475 L31.2407397,15.8492424 C32.3366555,14.7169192 34.1134858,14.7169192 35.2094016,15.8492424 L39.1780633,19.9497475 C40.2739789,21.0820708 40.2739789,22.9179293 39.1780633,24.0502527 L35.2094016,28.1507576 C34.1134858,29.2830808 32.3366555,29.2830808 31.2407397,28.1507576 L27.272078,24.0502527 C26.1761622,22.9179293 26.1761622,21.0820708 27.272078,19.9497475 Z" opacity=".3"/>
        <path fill="#6785F2" fill-rule="nonzero" d="M15.8492424,31.2407397 L19.9497475,27.272078 C21.0820708,26.1761622 22.9179293,26.1761622 24.0502527,27.272078 L28.1507576,31.2407397 C29.2830808,32.3366555 29.2830808,34.1134858 28.1507576,35.2094016 L24.0502527,39.1780633 C22.9179293,40.2739789 21.0820708,40.2739789 19.9497475,39.1780633 L15.8492424,35.2094016 C14.7169192,34.1134858 14.7169192,32.3366555 15.8492424,31.2407397 Z M15.8492424,8.79059855 L19.9497475,4.82193677 C21.0820708,3.72602108 22.9179293,3.72602108 24.0502527,4.82193677 L28.1507576,8.79059855 C29.2830808,9.88651422 29.2830808,11.6633446 28.1507576,12.7592603 L24.0502527,16.7279221 C22.9179293,17.8238378 21.0820708,17.8238378 19.9497475,16.7279221 L15.8492424,12.7592603 C14.7169192,11.6633446 14.7169192,9.88651422 15.8492424,8.79059855 Z"/>
      </g>
      <g transform="translate(442 1019)">
        <rect width="45" height="45"/>
        <path fill="#6785F2" fill-rule="nonzero" d="M38.4375,20 L42.1875,20 C43.7408008,20 45,21.3431458 45,23 C45,24.6568542 43.7408008,26 42.1875,26 L38.4375,26 C36.8841992,26 35.625,24.6568542 35.625,23 C35.625,21.3431458 36.8841992,20 38.4375,20 Z M2.8125,20 L6.5625,20 C8.11580085,20 9.375,21.3431458 9.375,23 C9.375,24.6568542 8.11580085,26 6.5625,26 L2.8125,26 C1.25919914,26 0,24.6568542 0,23 C0,21.3431458 1.25919914,20 2.8125,20 Z" opacity=".3"/>
        <path fill="#6785F2" fill-rule="nonzero" d="M22.5,30.2 C25.648023,30.2 28.2,27.648023 28.2,24.5 C28.2,21.351977 25.648023,18.8 22.5,18.8 C19.351977,18.8 16.8,21.351977 16.8,24.5 C16.8,27.648023 19.351977,30.2 22.5,30.2 Z M22.5,34 C17.2532949,34 13,29.746705 13,24.5 C13,19.253295 17.2532949,15 22.5,15 C27.746705,15 32,19.253295 32,24.5 C32,29.746705 27.746705,34 22.5,34 Z"/>
      </g>
    </g>
  </g>
</svg>
