<svg xmlns="http://www.w3.org/2000/svg" viewBox="0 0 808.9 223.3">
  <defs>
    <style>
      .cls-1,.cls-2{fill:#fff}.cls-2{fill-rule:evenodd}
    </style>
  </defs>
  <g id="Layer_2" data-name="Layer 2">
    <g id="Layer_1-2" data-name="Layer 1">
      <path d="M159 111.3a1 1 0 000 1.7l24.6 14.2a13 13 0 015.4 6 1.7 1.7 0 01.2.3 3.4 3.4 0 01.4 1.3 13 13 0 01.6 3.8v21.3l16.2 9.3v-52.4a13.1 13.1 0 016.5-11.3l45.7-26.6L213 52.6a6.2 6.2 0 00-6 0l-16.8 9.7v23.5a13.1 13.1 0 01-6.6 11.4z" class="cls-1"/>
      <path d="M260.8 85.7l-44.4 25.8a6.2 6.2 0 00-3 5.3v52.5L259 143a6.2 6.2 0 003-5.3V85zM78.5 97.2A13.1 13.1 0 0172 85.8V62.3l-16.8-9.7a6.1 6.1 0 00-3-.8 6 6 0 00-3.1.8L3.6 79l45.6 26.6a13.2 13.2 0 016.5 11.3v52.4l16.3-9.4v-21.3a13.1 13.1 0 016.5-11.3l24.6-14.2a1 1 0 000-1.6z" class="cls-1"/>
      <path d="M45.7 111.5L1.4 85.7 0 84.9v52.7a6.2 6.2 0 003 5.3l45.8 26.4v-52.5a6.2 6.2 0 00-3-5.3zM124.5 167L79 140.7v51A6.2 6.2 0 0082 197l45.6 26.3v-55a13.2 13.2 0 01-3-1.3zM137.6 167a13 13 0 01-3 1.3v55L180 197a6.2 6.2 0 003.1-5.3v-50.9zM180.1 133.2l-29.4-17-13 7.5a13.1 13.1 0 01-13.2 0l-13-7.5-29.5 17a5.5 5.5 0 00-1 .7l2.3 1.2L128 161a6.2 6.2 0 006.1 0l45-25.8 2-1.1a6 6 0 00-1-.8zM131.1 165.2" class="cls-1"/>
      <path d="M134.5 62.4v55l45.6-26.3a6.2 6.2 0 003.1-5.3V35l-45.6 26.2a13 13 0 01-3 1.2zM127.6 62.4a13.2 13.2 0 01-3-1.2L78.8 34.8v51a6.2 6.2 0 003.1 5.3l45.6 26.4zM180.1 27.4L134.1.8a6.1 6.1 0 00-6.1 0L82 27.4a6 6 0 00-1 .6l2.3 1.3L128 55.1a6.2 6.2 0 006.1 0l45-25.8 2-1.1a6 6 0 00-1-.8zM131.1 59.4" class="cls-1"/>
      <path id="CTO-Copy-2" d="M380.6 176.5a61 61 0 0060.1-44.2c.7-2.8-.9-4.6-4-4.6h-21c-2.4 0-3.8 1.2-5 3.5-5 11-16.5 17.5-30 17.5-22.1 0-36.4-14.8-36.4-37s14.3-37.1 36.4-37.1c13.5 0 25.1 6.6 30 17.4 1.1 2.4 2.6 3.6 5 3.6h21c3 0 4.7-2 4-5a61.3 61.3 0 00-60-43.8c-37.7 0-65 28.1-65 64.8s27.4 64.9 65 64.9zM526.5 49.3h-76.6c-2.9 0-4.5 1.6-4.5 4.4v18.6c0 2.8 1.6 4.4 4.5 4.4h24v92.9c0 2.8 1.6 4.4 4.5 4.4h19.5c2.9 0 4.5-1.6 4.5-4.5V76.8h24c3 0 4.5-1.6 4.5-4.4V53.7c0-2.8-1.5-4.4-4.4-4.4zM603 176.5c35.8 0 64.8-28.1 64.8-64.9s-29-64.8-64.9-64.8S538 74.9 538 111.6s29 64.9 64.9 64.9zm0-27.8c-20.4 0-36.4-14.8-36.4-37s16-37.1 36.4-37.1 36.3 14.8 36.3 37-16 37.1-36.4 37.1z" class="cls-2"/>
      <path d="M687.5 170.5c5.2 0 8.4-2.5 8.4-8.4s-3.2-8.6-8.4-8.6-8.4 2.7-8.4 8.6 3.2 8.4 8.4 8.4zm55.6-74.2c13 0 21 7.5 21 19.6v4.9H739c-19.2 0-31.2 9.4-31.2 25 0 16.5 12 25.6 30.9 25.6 10.6 0 21-4.5 25.4-12.9v6.5a5.5 5.5 0 1011 0v-49c0-18.2-11.4-30.3-32-30.3-15 0-24.6 6.3-29.6 14a5.5 5.5 0 00-1 3 5.2 5.2 0 005.3 5.3c1.6 0 2.8-.6 4.6-2.5a24.8 24.8 0 0120.7-9.2zm-3.4 64.7c-13.9 0-20.3-5.9-20.3-15.2 0-10.3 8-15.1 19.6-15.1h25.1v7.5c0 15.2-12 22.8-24.4 22.8zm68-68.6a5.7 5.7 0 10-11.3 0v72.3a5.7 5.7 0 1011.4 0zM802.2 70c4.3 0 6.8-2.5 6.8-6.8 0-5.1-2.5-7.1-6.8-7.1s-6.8 2-6.8 7.1c0 4.3 2.5 6.8 6.8 6.8z" class="cls-2"/>
    </g>
  </g>
</svg>
