<svg xmlns="http://www.w3.org/2000/svg" id="svg" width="150" height="150" viewBox="0 0 213.235 241.176" fill="#0057B8">
  <path d="M108.581,64.968V14.124l44.007,25.422L108.581,64.968"></path><path fill-opacity="1" d="M153.591,92.101V41.258L109.582,66.68L153.591,92.101"></path>
  <path d="M155.586,92.062V41.221l44.009,25.42L155.586,92.062"></path><path fill-opacity="1" d="M200.299,119.14V68.297l-44.004,25.421L200.299,119.14"></path>
  <path fill-opacity="1" d="M155.586,146.255V95.412l44.009,25.422L155.586,146.255"></path>
  <path fill-opacity="1" d="M200.299,173.35v-50.844l-44.004,25.422L200.299,173.35"></path>
  <path fill-opacity="1" d="M155.586,200.482v-50.84l44.009,25.417L155.586,200.482"></path>
  <path fill-opacity="1" d="M153.591,200.521v-50.84l-44.009,25.418L153.591,200.521"></path>
  <path fill-opacity="1" d="M108.581,227.696v-50.844l44.007,25.421L108.581,227.696"></path>
  <path fill-opacity="1" d="M106.62,227.696v-50.844l-44.005,25.421L106.62,227.696"></path>
  <path fill-opacity="1" d="M61.562,200.553V149.71l44.007,25.423L61.562,200.553"></path>
  <path fill-opacity="1" d="M59.709,200.56v-50.843l-44.008,25.422L59.709,200.56"></path>
  <path fill-opacity="1" d="M14.699,173.467v-50.843l44.01,25.42L14.699,173.467"></path>
  <path fill-opacity="1" d="M59.709,146.235V95.392l-44.008,25.42L59.709,146.235"></path>
  <path fill-opacity="1" d="M14.699,119.141V68.297l44.01,25.421L14.699,119.141"></path>
  <path fill-opacity="1" d="M59.709,92.101V41.258L15.701,66.68L59.709,92.101"></path>
  <path fill-opacity="1" d="M61.562,92.092V41.249l44.007,25.419L61.562,92.092"></path>
  <path fill-opacity="1" d="M106.62,64.968V14.124L62.614,39.546L106.62,64.968"></path>
</svg>